<svg xmlns="http://www.w3.org/2000/svg" viewBox="0 0 101.02 102.01"><path d="M36.66,66.62a99.72,99.72,0,0,0-8.73,33.2,9.21,9.21,0,0,1,2.4.44A126.9,126.9,0,0,0,50.4,102a111.81,111.81,0,0,0,22.69-2.84A101.31,101.31,0,0,0,101,88a106.76,106.76,0,0,1-30.76-4.37l-9.17-3.28-4.58-2a105.92,105.92,0,0,1-19.85-11.8Z" style="fill:#939495"/><path d="M50.4,0A82.89,82.89,0,0,1,64.15,30.36a81.92,81.92,0,0,1,1.74,10,92.69,92.69,0,0,1-1.31,26.87,104.89,104.89,0,0,0,31.86-9A113.44,113.44,0,0,0,88.15,39.1,93.19,93.19,0,0,0,75.93,21.62c-.22-.21-.44-.43-.65-.66A99,99,0,0,0,50.4,0Z" style="fill:#ce2035"/><path d="M50.4,44.56A89,89,0,0,0,26.19,57.44a47.27,47.27,0,0,0-6.33,5.25A82.2,82.2,0,0,0,0,89.78a106.27,106.27,0,0,0,27.93,10,99.72,99.72,0,0,1,8.73-33.2A122.16,122.16,0,0,1,50.4,44.56ZM30.26,65.45c1.17.27,2.36.51,3.56.73.55.11,1,.17,1.5.22-.46-.05-1-.1-1.5-.21-1.2-.22-2.39-.47-3.56-.74Z" style="fill:#951b28"/><path d="M50.4,0A101.39,101.39,0,0,0,25.75,21l-.66.65A107.42,107.42,0,0,1,48,41.28a28.77,28.77,0,0,1,2.4,3.28A98.56,98.56,0,0,1,64.58,67.28a92.69,92.69,0,0,0,1.31-26.87,82.41,82.41,0,0,0-1.74-10.06A82.92,82.92,0,0,0,50.4,0Z" style="fill:#e42f31"/><path d="M96.44,58.32a104.89,104.89,0,0,1-31.86,9,109.47,109.47,0,0,1-27.92-.66,105.92,105.92,0,0,0,19.85,11.8l4.58,2,9.17,3.28A106.76,106.76,0,0,0,101,88a98.33,98.33,0,0,0-4.58-29.71Z" style="fill:#b3b5b5"/><path d="M25.09,21.62A113.08,113.08,0,0,0,12.22,40.19a105.54,105.54,0,0,0-7,16.38A110.63,110.63,0,0,0,.44,78.63,91.9,91.9,0,0,1,16.37,61.38c2.61-2,5.23-3.94,8.07-5.68a91.51,91.51,0,0,1,26-11.14A28.77,28.77,0,0,0,48,41.28,107.42,107.42,0,0,0,25.09,21.62Z" style="fill:#5c0e1f"/></svg>